<svg width="24" height="24" viewBox="0 0 24 24" fill="none" xmlns="http://www.w3.org/2000/svg">
<path d="M12.4874 19.5883L7.97385 19.5057C6.51246 19.4769 5.04744 19.5344 3.61471 19.2364C1.43519 18.7911 1.28079 16.608 1.11922 14.7767C0.896594 12.2022 0.982778 9.58096 1.4029 7.02794C1.64007 5.59543 2.57344 4.74064 4.01686 4.64762C8.88948 4.31004 13.7945 4.35005 18.6563 4.50754C19.1698 4.52198 19.6868 4.60089 20.1931 4.69071C22.6923 5.1288 22.7533 7.60279 22.9153 9.68544C23.0768 11.7896 23.0086 13.9045 22.6998 15.9943C22.4521 17.7246 21.978 19.1756 19.9776 19.3157C17.4712 19.4989 15.0223 19.6463 12.5089 19.5994C12.509 19.5883 12.4946 19.5883 12.4874 19.5883ZM9.83387 15.2076C11.7226 14.1232 13.5754 13.0568 15.4534 11.9796C13.5611 10.8951 11.7118 9.82871 9.83387 8.75151V15.2076Z" fill="white"/>
</svg>
